<svg width="360" height="120" viewBox="0 0 360 120" fill="none" xmlns="http://www.w3.org/2000/svg">
<rect width="360" height="120" fill="white"/>
<path d="M71.4 40.672H88.008C90.44 40.672 92.12 40.96 93.048 41.536C94.008 42.112 94.488 42.992 94.488 44.176C94.488 45.328 93.976 46.336 92.952 47.2C91.416 46.592 89.4 46.288 86.904 46.288H76.2V54.784H82.824C85.384 54.784 87.192 55.024 88.248 55.504C89.336 55.952 89.88 56.72 89.88 57.808C89.88 58.864 89.368 59.744 88.344 60.448C87.192 60.128 85.176 59.968 82.296 59.968H76.2V71.056C76.2 72.784 76.712 73.92 77.736 74.464C76.584 75.84 75.128 76.528 73.368 76.528C70.232 76.528 68.664 74.624 68.664 70.816V46.096C68.664 44.464 68.12 43.36 67.032 42.784C68.216 41.376 69.672 40.672 71.4 40.672ZM105.236 69.424C105.236 70.992 106.132 71.776 107.924 71.776C109.236 71.776 110.42 71.168 111.476 69.952V65.296C107.316 65.52 105.236 66.896 105.236 69.424ZM119.012 59.008V69.904C119.012 71.92 119.876 73.2 121.604 73.744C121.028 74.544 120.244 75.216 119.252 75.76C118.292 76.272 117.268 76.528 116.18 76.528C113.812 76.528 112.34 75.472 111.764 73.36C109.78 75.472 107.3 76.528 104.324 76.528C102.116 76.528 100.356 75.984 99.0443 74.896C97.7323 73.808 97.0763 72.272 97.0763 70.288C97.0763 67.856 98.3403 65.92 100.868 64.48C103.428 63.008 106.964 62.24 111.476 62.176V57.616C111.476 55.472 110.612 54.4 108.884 54.4C108.18 54.4 107.588 54.624 107.108 55.072C106.66 55.488 106.436 56.064 106.436 56.8C106.436 57.504 106.692 58.16 107.204 58.768C106.116 59.92 104.74 60.496 103.076 60.496C101.444 60.496 100.228 60.128 99.4283 59.392C98.6603 58.656 98.2763 57.696 98.2763 56.512C98.2763 54.72 99.3643 53.248 101.54 52.096C103.748 50.944 106.308 50.368 109.22 50.368C112.164 50.368 114.532 51.056 116.324 52.432C118.116 53.808 119.012 56 119.012 59.008ZM133.764 44.08V60.256C139.716 57.472 142.692 54.176 142.692 50.368C144.836 50.368 146.564 50.8 147.876 51.664C149.188 52.528 149.844 53.744 149.844 55.312C149.844 56.848 148.964 58.208 147.204 59.392C145.476 60.576 142.74 61.728 138.996 62.848C142.1 65.984 144.404 67.984 145.908 68.848C147.412 69.712 149.092 70.144 150.948 70.144C150.948 72.16 150.468 73.728 149.508 74.848C148.548 75.968 147.22 76.528 145.524 76.528C143.828 76.528 142.084 75.68 140.292 73.984C138.532 72.256 136.356 69.296 133.764 65.104V71.056C133.764 72.784 134.292 73.92 135.348 74.464C134.132 75.84 132.66 76.528 130.932 76.528C127.796 76.528 126.228 74.624 126.228 70.816V43.792C126.228 42.192 125.684 41.056 124.596 40.384C125.812 39.04 127.284 38.368 129.012 38.368C132.18 38.368 133.764 40.272 133.764 44.08ZM168.023 60.112C168.599 60.048 169.031 59.872 169.319 59.584C169.607 59.264 169.751 58.672 169.751 57.808C169.751 56.944 169.495 56.16 168.983 55.456C168.503 54.72 167.831 54.352 166.967 54.352C166.103 54.352 165.287 54.896 164.519 55.984C163.751 57.072 163.239 58.656 162.983 60.736L168.023 60.112ZM168.839 71.296C171.495 71.296 173.719 70.288 175.511 68.272C176.247 68.592 176.615 69.264 176.615 70.288C176.615 71.824 175.703 73.248 173.879 74.56C172.055 75.872 169.911 76.528 167.447 76.528C163.639 76.528 160.663 75.488 158.519 73.408C156.407 71.328 155.351 68.352 155.351 64.48C155.351 60.576 156.519 57.248 158.855 54.496C161.191 51.744 164.151 50.368 167.735 50.368C170.487 50.368 172.759 51.264 174.551 53.056C176.343 54.816 177.239 56.832 177.239 59.104C177.239 60.864 176.823 62.128 175.991 62.896C175.159 63.664 173.735 64.08 171.719 64.144L162.839 64.384C163.063 68.992 165.063 71.296 168.839 71.296ZM189.968 68.56C189.968 71.152 191.072 72.448 193.28 72.448C195.04 72.448 196.464 71.616 197.552 69.952C198.672 68.288 199.232 66.16 199.232 63.568C199.232 60.976 198.752 58.992 197.792 57.616C196.832 56.208 195.68 55.504 194.336 55.504C193.472 55.504 192.64 55.792 191.84 56.368C191.072 56.912 190.448 57.664 189.968 58.624V68.56ZM189.968 44.08V53.536C191.664 51.424 193.92 50.368 196.736 50.368C199.584 50.368 201.968 51.456 203.888 53.632C205.84 55.808 206.816 58.752 206.816 62.464C206.816 66.848 205.52 70.288 202.927 72.784C200.336 75.28 196.976 76.528 192.848 76.528C189.424 76.528 186.832 75.952 185.072 74.8C183.312 73.616 182.432 71.536 182.432 68.56V43.792C182.432 42.192 181.888 41.056 180.8 40.384C182.016 39.04 183.488 38.368 185.216 38.368C188.384 38.368 189.968 40.272 189.968 44.08ZM221.907 54.016C219.155 54.016 217.779 56.416 217.779 61.216C217.779 61.92 217.811 62.656 217.875 63.424C218.259 69.728 220.019 72.88 223.155 72.88C225.907 72.88 227.283 70.464 227.283 65.632C227.283 64.96 227.251 64.224 227.187 63.424C226.739 57.152 224.979 54.016 221.907 54.016ZM213.603 53.776C215.875 51.504 218.851 50.368 222.531 50.368C226.211 50.368 229.187 51.504 231.459 53.776C233.731 56.016 234.867 59.232 234.867 63.424C234.867 67.616 233.715 70.848 231.411 73.12C229.139 75.392 226.163 76.528 222.483 76.528C218.835 76.528 215.875 75.392 213.603 73.12C211.331 70.848 210.195 67.616 210.195 63.424C210.195 59.232 211.331 56.016 213.603 53.776ZM251.204 54.016C248.452 54.016 247.076 56.416 247.076 61.216C247.076 61.92 247.108 62.656 247.172 63.424C247.556 69.728 249.316 72.88 252.452 72.88C255.204 72.88 256.58 70.464 256.58 65.632C256.58 64.96 256.548 64.224 256.484 63.424C256.036 57.152 254.276 54.016 251.204 54.016ZM242.9 53.776C245.172 51.504 248.148 50.368 251.828 50.368C255.508 50.368 258.484 51.504 260.756 53.776C263.028 56.016 264.164 59.232 264.164 63.424C264.164 67.616 263.012 70.848 260.708 73.12C258.436 75.392 255.46 76.528 251.78 76.528C248.132 76.528 245.172 75.392 242.9 73.12C240.628 70.848 239.492 67.616 239.492 63.424C239.492 59.232 240.628 56.016 242.9 53.776ZM277.764 44.08V60.256C283.716 57.472 286.692 54.176 286.692 50.368C288.836 50.368 290.564 50.8 291.876 51.664C293.188 52.528 293.844 53.744 293.844 55.312C293.844 56.848 292.964 58.208 291.204 59.392C289.476 60.576 286.74 61.728 282.996 62.848C286.1 65.984 288.404 67.984 289.908 68.848C291.412 69.712 293.092 70.144 294.948 70.144C294.948 72.16 294.468 73.728 293.508 74.848C292.548 75.968 291.22 76.528 289.524 76.528C287.828 76.528 286.084 75.68 284.292 73.984C282.532 72.256 280.356 69.296 277.764 65.104V71.056C277.764 72.784 278.292 73.92 279.348 74.464C278.132 75.84 276.66 76.528 274.932 76.528C271.796 76.528 270.228 74.624 270.228 70.816V43.792C270.228 42.192 269.684 41.056 268.596 40.384C269.812 39.04 271.284 38.368 273.012 38.368C276.18 38.368 277.764 40.272 277.764 44.08Z" fill="black"/>
</svg>
