<svg width="120" height="120" viewBox="0 0 120 120" fill="none" xmlns="http://www.w3.org/2000/svg">
<rect width="120" height="120" rx="40" fill="black"/>
<path d="M36.4 40.672H53.008C55.44 40.672 57.12 40.96 58.048 41.536C59.008 42.112 59.488 42.992 59.488 44.176C59.488 45.328 58.976 46.336 57.952 47.2C56.416 46.592 54.4 46.288 51.904 46.288H41.2V54.784H47.824C50.384 54.784 52.192 55.024 53.248 55.504C54.336 55.952 54.88 56.72 54.88 57.808C54.88 58.864 54.368 59.744 53.344 60.448C52.192 60.128 50.176 59.968 47.296 59.968H41.2V71.056C41.2 72.784 41.712 73.92 42.736 74.464C41.584 75.84 40.128 76.528 38.368 76.528C35.232 76.528 33.664 74.624 33.664 70.816V46.096C33.664 44.464 33.12 43.36 32.032 42.784C33.216 41.376 34.672 40.672 36.4 40.672ZM71.4363 44.08V60.256C77.3883 57.472 80.3643 54.176 80.3643 50.368C82.5083 50.368 84.2363 50.8 85.5483 51.664C86.8603 52.528 87.5163 53.744 87.5163 55.312C87.5163 56.848 86.6363 58.208 84.8763 59.392C83.1483 60.576 80.4123 61.728 76.6683 62.848C79.7723 65.984 82.0763 67.984 83.5803 68.848C85.0843 69.712 86.7643 70.144 88.6203 70.144C88.6203 72.16 88.1403 73.728 87.1803 74.848C86.2203 75.968 84.8923 76.528 83.1963 76.528C81.5003 76.528 79.7563 75.68 77.9643 73.984C76.2043 72.256 74.0283 69.296 71.4363 65.104V71.056C71.4363 72.784 71.9643 73.92 73.0203 74.464C71.8043 75.84 70.3323 76.528 68.6043 76.528C65.4683 76.528 63.9003 74.624 63.9003 70.816V43.792C63.9003 42.192 63.3563 41.056 62.2683 40.384C63.4843 39.04 64.9563 38.368 66.6843 38.368C69.8523 38.368 71.4363 40.272 71.4363 44.08Z" fill="white"/>
</svg>
