<svg width="25" height="24" viewBox="0 0 25 24" fill="none" xmlns="http://www.w3.org/2000/svg">
<path d="M14.4789 3.51014L16.2389 7.03014C16.4789 7.52014 17.1189 7.99014 17.6589 8.08014L20.8489 8.61014C22.8889 8.95014 23.3689 10.4301 21.8989 11.8901L19.4189 14.3701C18.9989 14.7901 18.7689 15.6001 18.8989 16.1801L19.6089 19.2501C20.1689 21.6801 18.8789 22.6201 16.7289 21.3501L13.7389 19.5801C13.1989 19.2601 12.3089 19.2601 11.7589 19.5801L8.76893 21.3501C6.62893 22.6201 5.32893 21.6701 5.88893 19.2501L6.59893 16.1801C6.72893 15.6001 6.49893 14.7901 6.07893 14.3701L3.59893 11.8901C2.13893 10.4301 2.60893 8.95014 4.64893 8.61014L7.83893 8.08014C8.36893 7.99014 9.00893 7.52014 9.24893 7.03014L11.0089 3.51014C11.9689 1.60014 13.5289 1.60014 14.4789 3.51014Z" stroke="black" stroke-width="1.5" stroke-linecap="round" stroke-linejoin="round"/>
</svg>
